<svg xmlns="http://www.w3.org/2000/svg" width="256" height="256"><path fill-opacity=".016" d="M0 128.004v128.004l128.25-.254 128.25-.254.254-127.75L257.008 0H0v128.004m.485.496c0 70.4.119 99.053.265 63.672.146-35.38.146-92.98 0-128C.604 29.153.485 58.1.485 128.5" fill="#050d40" fill-rule="evenodd"/><path fill-opacity=".255" d="M126.852 44.715c-.837.982-2.439 3.36-3.56 5.285-1.121 1.925-15.444 26-31.829 53.5A57263.503 57263.503 0 0050.701 172c-6.034 10.175-13.587 22.775-16.784 28-3.198 5.225-5.47 9.844-5.051 10.265.42.42 14.909.645 32.199.5L92.5 210.5l21.239-36.5c11.681-20.075 26.644-45.791 33.25-57.147C153.595 105.497 159 95.643 159 94.955c0-1.541-26.641-47.765-28.956-50.24-1.603-1.714-1.731-1.714-3.192 0m34.836 73.035c-6.172 10.627-32.944 57.302-43.868 76.482-4.928 8.653-8.677 16.19-8.331 16.75.672 1.088 116.679 1.517 117.76.436.32-.321-2.152-5.046-5.495-10.5L215.677 191h-72.824l3.265-5.75c13.604-23.955 22.281-37.56 23.093-36.208.482.802 3.142 5.396 5.912 10.208l5.035 8.75h10.421c7.081 0 10.421-.362 10.421-1.13 0-1.105-27.452-48.682-31.227-54.12-1.05-1.513-2.286-2.75-2.746-2.75-.46 0-2.863 3.487-5.339 7.75" fill="#050d40" fill-rule="evenodd"/><path fill-opacity=".139" d="M121.466 53.75c-8.463 14.273-70.022 117.549-74.955 125.75C33.502 201.126 29 208.946 29 209.916c0 .756 9.527 1.084 31.429 1.084h31.429l6.888-11.75c3.789-6.463 12.774-21.875 19.967-34.25s18.532-31.874 25.199-43.331c16.052-27.587 15.39-26.22 13.991-28.928C152.026 81.368 129.492 44 128.509 44c-.694 0-3.864 4.388-7.043 9.75m40.54 64.454C136.302 162.642 110 209.017 110 209.899c0 .789 16.577 1.101 58.5 1.101 32.175 0 58.5-.256 58.5-.57 0-.313-1.267-2.451-2.815-4.75s-4.042-6.318-5.542-8.93l-2.727-4.75h-36.575c-35.391 0-36.558-.061-36.079-1.893.861-3.293 24.105-42.108 25.195-42.075.574.018 3.293 4.116 6.043 9.107s5.482 9.269 6.071 9.506c.589.238 5.445.302 10.791.143l9.72-.288-8.888-15c-21.085-35.582-23.753-39.904-24.831-40.239-.626-.194-3.036 2.931-5.357 6.943" fill="#050d40" fill-rule="evenodd"/><path fill-opacity=".478" d="M123.838 50.267c-2.014 3.428-9.03 15.233-15.59 26.233-6.56 11-24.655 41.375-40.211 67.5-15.556 26.125-30.703 51.443-33.661 56.262-2.957 4.819-5.376 9.206-5.376 9.75 0 .63 11.341.988 31.284.988h31.285l23.405-40.25c12.872-22.137 27.819-47.828 33.215-57.09 5.396-9.262 9.811-17.551 9.811-18.419 0-1.746-1.608-4.732-16.284-30.241-9.788-17.011-12.389-21.019-13.621-20.983-.327.01-2.243 2.823-4.257 6.25" fill="#050d40" fill-rule="evenodd"/></svg>